<?xml version="1.0" encoding="UTF-8"?>
<svg width="534px" height="447px" viewBox="0 0 534 447" version="1.1" xmlns="http://www.w3.org/2000/svg" xmlns:xlink="http://www.w3.org/1999/xlink">
    <!-- Generator: Sketch 51.2 (57519) - http://www.bohemiancoding.com/sketch -->
    <title>Group 9</title>
    <desc>Created with Sketch.</desc>
    <defs></defs>
    <g id="Web-page" stroke="none" stroke-width="1" fill="none" fill-rule="evenodd">
        <g id="frapp-home-page---1" transform="translate(-853.000000, -1784.000000)">
            <g id="Group-9" transform="translate(853.000000, 1787.000000)">
                <g id="Group" transform="translate(200.000000, 242.000000)" fill-rule="nonzero">
                    <path d="M297.86271,169.666087 L302.35453,169.666087 C304.330997,169.666087 305.948486,168.015652 305.948486,165.998261 L305.948486,98.8330435 C305.948486,96.8156522 304.330997,95.166087 302.35453,95.166087 L297.86271,95.166087 C295.886243,95.166087 294.268755,96.8165217 294.268755,98.8330435 L294.268755,165.998261 C294.269587,168.015652 295.886243,169.666087 297.86271,169.666087 Z" id="Shape_13_" fill="#9588A8"></path>
                    <path d="M18.0055927,199.469565 L22.4974125,199.469565 C24.4738799,199.469565 26.0913681,197.81913 26.0913681,195.802609 L26.0913681,98.833913 C26.0913681,96.8165217 24.4738799,95.1669565 22.4974125,95.1669565 L18.0055927,95.1669565 C16.0291253,95.1669565 14.4116371,96.8173913 14.4116371,98.833913 L14.4116371,195.802609 C14.4116371,197.82 16.0291253,199.469565 18.0055927,199.469565 Z" id="Shape_12_" fill="#9588A8"></path>
                    <path d="M260.782916,199.469565 L265.274736,199.469565 C267.251204,199.469565 268.868692,197.81913 268.868692,195.802609 L268.868692,98.833913 C268.868692,96.8165217 267.251204,95.1669565 265.274736,95.1669565 L260.782916,95.1669565 C258.806449,95.1669565 257.188961,96.8173913 257.188961,98.833913 L257.188961,195.802609 C257.188961,197.82 258.806449,199.469565 260.782916,199.469565 Z" id="Shape_1_" fill="#9588A8"></path>
                    <path d="M51.5930444,173.293043 L56.0848642,173.293043 C58.0613316,173.293043 59.6788198,171.913913 59.6788198,170.228696 L59.6788198,19.3304348 C59.6788198,17.6452174 58.0613316,16.266087 56.0848642,16.266087 L51.5930444,16.266087 C49.616577,16.266087 47.9990888,17.6452174 47.9990888,19.3304348 L47.9990888,170.230435 C47.9990888,171.913913 49.616577,173.293043 51.5930444,173.293043 Z" id="Shape_11_" fill="#9588A8"></path>
                    <path d="M17.9422924,81.5347826 L309.479141,81.5347826 C314.419893,81.5347826 318.462781,85.6608696 318.462781,90.7026087 L318.462781,104.414783 C318.462781,109.457391 314.419893,113.582609 309.479141,113.582609 L9.17770496,113.582609 C-1.63414621,115.344348 0.194065274,102.435652 0.194065274,97.3930435 L8.96115144,90.7017391 C8.95865274,85.6608696 13.0015405,81.5347826 17.9422924,81.5347826 Z" id="Shape_10_" fill="#B7A3CE"></path>
                    <path d="M3.78552219,101.061739 L314.869658,101.061739 C316.846125,101.061739 318.463614,99.1 318.463614,96.7017391 L318.463614,79.3356522 C318.463614,76.9373913 316.846125,74.9756522 314.869658,74.9756522 L11.8879556,74.9756522 C9.91148825,74.9756522 8.294,76.9373913 8.294,79.3356522 L0.193232376,96.7017391 C0.19156658,99.0991304 1.80905483,101.061739 3.78552219,101.061739 Z" id="Shape_9_" fill="#9588A8"></path>
                    <path d="M4.53429765,24.0513043 L315.05123,24.0513043 C317.027697,24.0513043 318.645185,22.4008696 318.645185,20.3843478 L318.645185,3.75304348 C318.645185,1.73565217 317.027697,0.0860869565 315.05123,0.0860869565 L4.53429765,0.0860869565 C2.55783029,0.0860869565 0.940342037,1.73652174 0.940342037,3.75304348 L0.940342037,20.3843478 C0.941174935,22.4008696 2.55866319,24.0513043 4.53429765,24.0513043 Z" id="Shape_8_" fill="#9588A8"></path>
                    <path d="M4.53429765,61.5982609 L315.05123,61.5982609 C317.027697,61.5982609 318.645185,59.9478261 318.645185,57.9313043 L318.645185,41.3 C318.645185,39.2826087 317.027697,37.6330435 315.05123,37.6330435 L4.53429765,37.6330435 C2.55783029,37.6330435 0.940342037,39.2834783 0.940342037,41.3 L0.940342037,57.9313043 C0.941174935,59.9478261 2.55866319,61.5982609 4.53429765,61.5982609 Z" id="Shape_7_" fill="#9588A8"></path>
                </g>
                <g id="Group" transform="translate(281.000000, 294.000000)">
                    <g transform="translate(1.671233, 11.311688)" id="Shape">
                        <path d="M101.322671,19.858974 C95.3229452,17.9011818 35.2404521,0.764844156 35.2404521,0.764844156 L0.665986301,20.9553377 L72.4863836,49.2667532 L101.322671,19.858974 Z" fill="#FFFFFF" fill-rule="nonzero"></path>
                        <polygon fill="#F7D647" fill-rule="nonzero" points="96.5120274 20.2531429 59.4566164 23.919 55.0512466 8.13397403"></polygon>
                        <polygon fill="#0065FF" fill-rule="nonzero" points="65.5733288 23.3142597 80.1389589 37.0675325 96.5120274 20.2531429"></polygon>
                        <path d="M96.5120274,19.7641299 C91.0771781,18.0282208 36.6568219,2.83836364 36.6568219,2.83836364 L5.33958904,20.7369351 L70.3923288,45.8340909 L96.5120274,19.7641299 Z" stroke="#FC5130" stroke-width="0.5"></path>
                    </g>
                    <g transform="translate(5.849315, 9.571429)" id="Shape">
                        <path d="M101.201507,19.3247143 C95.2017808,17.3669221 35.1192877,0.230584416 35.1192877,0.230584416 L0.544821918,20.4210779 L72.3652192,48.7324935 L101.201507,19.3247143 Z" fill="#FFFFFF" fill-rule="nonzero"></path>
                        <polygon fill="#F7D647" fill-rule="nonzero" points="96.390863 19.7197532 59.3354521 23.3847403 54.9300822 7.59971429"></polygon>
                        <polygon fill="#0065FF" fill-rule="nonzero" points="65.4521644 22.78 80.0177945 36.5332727 96.390863 19.7197532"></polygon>
                        <path d="M96.390863,19.2298701 C90.9560137,17.493961 36.5356575,2.3041039 36.5356575,2.3041039 L5.21842466,20.2026753 L70.2711644,45.2998312 L96.390863,19.2298701 Z" stroke="#FC5130" stroke-width="0.5"></path>
                    </g>
                    <g transform="translate(0.000000, 9.571429)" id="Shape">
                        <path d="M100.925753,19.1080519 C94.9260274,17.1502597 34.8435342,0.0139220779 34.8435342,0.0139220779 L0.269068493,20.2044156 L72.0894658,48.5158312 L100.925753,19.1080519 Z" fill="#EFEFF4" fill-rule="nonzero"></path>
                        <polygon fill="#F7D647" fill-rule="nonzero" points="96.1151096 19.5030909 59.0596986 23.1680779 54.6534932 7.38305195"></polygon>
                        <polygon fill="#0065FF" fill-rule="nonzero" points="65.1755753 22.5633377 79.7412055 36.3166104 96.1151096 19.5030909"></polygon>
                        <path d="M96.1151096,19.0132078 C90.6802603,17.2772987 36.2599041,2.08744156 36.2599041,2.08744156 L4.94267123,19.986013 L69.995411,45.0831688 L96.1151096,19.0132078 Z" stroke="#FC5130" stroke-width="0.5"></path>
                    </g>
                    <g transform="translate(14.205479, 8.701299)" id="Shape">
                        <path d="M100.959178,19.5144026 C94.9594521,17.5566104 34.8769589,0.420272727 34.8769589,0.420272727 L0.302493151,20.6107662 L72.1228904,48.9221818 L100.959178,19.5144026 Z" fill="#FFFFFF" fill-rule="nonzero"></path>
                        <polygon fill="#F7D647" fill-rule="nonzero" points="96.1485342 19.9094416 59.0931233 23.5744286 54.6877534 7.7894026"></polygon>
                        <polygon fill="#0065FF" fill-rule="nonzero" points="65.2098356 22.9696883 79.7754658 36.722961 96.1485342 19.9094416"></polygon>
                        <path d="M96.1485342,19.4195584 C90.7136849,17.6836494 36.2933288,2.49379221 36.2933288,2.49379221 L4.97609589,20.3923636 L70.0288356,45.4895195 L96.1485342,19.4195584 Z" stroke="#FC5130" stroke-width="0.5"></path>
                    </g>
                    <g transform="translate(7.520548, 8.701299)" id="Shape">
                        <path d="M100.713507,19.5144026 C94.7137808,17.5566104 34.6312877,0.420272727 34.6312877,0.420272727 L0.0568219178,20.6107662 L71.8772192,48.9221818 L100.713507,19.5144026 Z" fill="#FFFFFF" fill-rule="nonzero"></path>
                        <polygon fill="#F7D647" fill-rule="nonzero" points="95.9036986 19.9094416 58.8474521 23.5744286 54.4420822 7.7894026"></polygon>
                        <polygon fill="#0065FF" fill-rule="nonzero" points="64.9641644 22.9696883 79.5297945 36.722961 95.9036986 19.9094416"></polygon>
                        <path d="M95.9036986,19.4195584 C90.4688493,17.6836494 36.0484932,2.49379221 36.0484932,2.49379221 L4.73126027,20.3923636 L69.784,45.4895195 L95.9036986,19.4195584 Z" stroke="#FC5130" stroke-width="0.5"></path>
                    </g>
                    <g transform="translate(20.054795, 11.311688)" id="Shape">
                        <path d="M100.885644,22.8217662 C94.9870274,20.5542078 35.8011507,0.315857143 35.8011507,0.315857143 L0.301657534,18.6842987 L70.6747671,50.6946364 L100.885644,22.8217662 Z" fill="#EFEFF4" fill-rule="nonzero"></path>
                        <polygon fill="#F7D647" fill-rule="nonzero" points="96.0616301 22.9662078 58.8766986 24.7003766 55.233411 8.70564935"></polygon>
                        <polygon fill="#0065FF" fill-rule="nonzero" points="65.015137 24.4141039 78.9030822 38.9078571 96.0616301 22.9662078"></polygon>
                        <path d="M96.0850274,22.4771948 C90.7404247,20.4611039 37.1155753,2.45985714 37.1155753,2.45985714 L4.97943836,18.7077922 L68.7478356,47.1558182 L96.0850274,22.4771948 Z" stroke="#FC5130" stroke-width="0.5"></path>
                    </g>
                    <g transform="translate(14.205479, 6.090909)" id="Shape">
                        <path d="M101.262507,22.7425844 C95.3638904,20.475026 36.1780137,0.236675325 36.1780137,0.236675325 L0.678520548,18.6051169 L71.0516301,50.6154545 L101.262507,22.7425844 Z" fill="#EFEFF4" fill-rule="nonzero"></path>
                        <polygon fill="#F7D647" fill-rule="nonzero" points="96.4393288 22.8861558 59.2543973 24.6203247 55.6111096 8.6255974"></polygon>
                        <polygon fill="#0065FF" fill-rule="nonzero" points="65.392 24.3340519 79.2799452 38.8278052 96.4393288 22.8861558"></polygon>
                        <path d="M96.462726,22.3971429 C91.1181233,20.3810519 37.493274,2.38067532 37.493274,2.38067532 L5.35713699,18.6286104 L69.1255342,47.0766364 L96.462726,22.3971429 Z" stroke="#FC5130" stroke-width="0.5"></path>
                    </g>
                    <g transform="translate(7.520548, 0.000000)" id="Shape">
                        <polygon fill="#EFF2F4" fill-rule="nonzero" points="0.0150410959 36.0181558 30.6161507 66.169026 114.479452 30.7286364 83.8783425 0.577766234"></polygon>
                        <polygon fill="#F7D647" fill-rule="nonzero" points="65.8315342 30.4458442 81.5803973 3.40742857 16.4842055 30.9165844"></polygon>
                        <path d="M67.8612466,17.493961 L76.4513836,25.9585844" stroke="#F7D647"></path>
                        <path d="M63.9555753,27.8110909 L72.5457123,36.2748442" stroke="#F7D647"></path>
                        <path d="M55.3328493,28.1347792 L63.9238219,36.5994026" stroke="#F7D647"></path>
                        <polygon fill="#0065FF" fill-rule="nonzero" points="102.978863 24.4915455 81.5803973 3.40742857 73.7063836 16.9266364"></polygon>
                        <polygon stroke="#FC5130" stroke-width="0.5" points="4.95353425 35.7901818 32.9132603 63.3384935 109.540959 30.9566104 81.5803973 3.40742857"></polygon>
                    </g>
                </g>
                <g id="Group" transform="translate(0.000000, 198.000000)">
                    <ellipse id="Oval" fill="#C1A4F7" fill-rule="nonzero" cx="75.4261029" cy="239.483617" rx="20.8596457" ry="6.29829787"></ellipse>
                    <g>
                        <path d="M83.0080914,234.232128 C83.0080914,234.232128 78.2626743,236.13034 77.0262629,233.652021 C77.0262629,233.652021 65.8384914,234.466787 65.0192229,235.859043 C65.0192229,235.859043 61.9457143,239.608362 67.1708457,241.964553 C67.1708457,241.964553 70.9610057,244.214319 82.6401714,240.143979 C82.6401714,240.143979 83.8281943,238.945383 83.0080914,234.232128 Z" id="Shape" fill="#FF5630" fill-rule="nonzero"></path>
                        <path d="M83.0080914,234.232128 C83.0080914,234.232128 78.2626743,236.13034 77.0262629,233.652021 C77.0262629,233.652021 65.8384914,234.466787 65.0192229,235.859043 C65.0192229,235.859043 62.2744229,238.389702 67.49872,240.746766 C67.49872,240.746766 71.28888,242.996532 82.9680457,238.925319 C82.9680457,238.925319 83.8281943,238.945383 83.0080914,234.232128 Z" id="Shape" fill="#FF8F73" fill-rule="nonzero"></path>
                        <path d="M52.8278057,182.513681 C52.8278057,182.513681 50.1639314,193.011426 55.0812114,202.437936 C55.0812114,202.437936 60.4256457,210.555936 93.8262743,187.080383 L91.39016,183.224638 C91.39016,183.224638 91.10984,183.264766 90.6092686,183.344149 C86.5329486,183.99317 70.8775771,184.937915 65.7550629,193.154489 L66.3490743,182.513681 L52.8278057,182.513681 Z" id="Shape" fill="#F9AA69" fill-rule="nonzero"></path>
                        <path d="M55.28728,179.942894 C55.28728,179.942894 52.6234057,190.440638 57.5406857,199.867149 C57.5406857,199.867149 62.88512,207.985149 96.2857486,184.509596 L91.3909943,183.224638 C91.3909943,183.224638 91.1106743,183.264766 90.6101029,183.344149 C86.5337829,183.99317 70.8784114,184.937915 65.7558971,193.154489 L66.3499086,182.513681 L55.28728,179.942894 Z" id="Shape" fill="#FDC58A" fill-rule="nonzero"></path>
                        <path d="M90.6109371,183.344149 C90.6109371,183.344149 93.3790971,186.105106 92.1710514,188.602617 C92.1710514,188.602617 95.75264,197.462979 98.4165143,198.319617 C98.4165143,198.319617 105.3828,199.68483 103.743429,193.456319 C103.743429,193.456319 100.772537,186.424383 97.8016457,183.344149 C97.8016457,183.344149 94.7915429,178.176404 90.6109371,183.344149 Z" id="Shape" fill="#FF5630" fill-rule="nonzero"></path>
                        <path d="M90.6109371,183.344149 C90.6109371,183.344149 93.3790971,186.105106 92.1710514,188.602617 C92.1710514,188.602617 95.75264,197.462979 98.4165143,198.319617 C98.4165143,198.319617 103.708389,200.057319 102.069017,193.828809 C102.069017,193.828809 99.0981257,186.796872 96.1272343,183.716638 C96.1272343,183.716638 94.7915429,178.176404 90.6109371,183.344149 Z" id="Shape" fill="#FF8F73" fill-rule="nonzero"></path>
                        <path d="M73.9318971,178.44334 C73.9318971,178.44334 70.68152,191.061745 74.9564,197.296362 C76.1561029,199.046277 76.5674057,202.744128 76.4848114,205.758936 C76.4848114,205.758936 76.2812457,232.859936 77.3875086,235.859043 L82.53672,235.859043 L85.5801943,219.055149 C85.5801943,219.055149 89.5180229,207.299489 85.3841371,200.741234 C84.1852686,198.839532 84.0951657,196.185 86.6355657,191.725596 C86.6355657,191.725596 90.3239429,184.441553 89.7090743,175.657957 L73.9318971,178.44334 Z" id="Shape" fill="#F9AA69" fill-rule="nonzero"></path>
                        <path d="M73.9318971,178.44334 C73.9318971,178.44334 70.68152,191.061745 74.9564,197.296362 C76.1561029,199.046277 76.5674057,202.744128 76.4848114,205.758936 C76.4848114,205.758936 76.2812457,232.859936 77.3875086,235.859043 L80.07808,235.859043 L83.1215543,219.055149 C83.1215543,219.055149 87.0593829,207.299489 82.9254971,200.741234 C81.7266286,198.839532 81.6365257,196.185 84.1769257,191.725596 C84.1769257,191.725596 87.8653029,184.441553 87.2504343,175.657957 L73.9318971,178.44334 Z" id="Shape" fill="#FDC58A" fill-rule="nonzero"></path>
                        <path d="M59.0932914,160.208809 C59.0932914,160.208809 49.6032914,176.504128 50.27072,186.996638 C50.27072,186.996638 78.3235771,190.909085 98.9512914,176.335766 L89.3086171,154.613617 L59.0932914,160.208809 Z" id="Shape" fill="#FAA919" fill-rule="nonzero"></path>
                        <path d="M64.8857371,106.360106 C64.8857371,106.360106 41.99544,113.877936 26.5302857,100.378468 L15.76216,106.42117 C15.76216,106.42117 29.7639771,124.835404 60.7501829,122.839489 L64.8857371,106.360106 Z" id="Shape" fill="#2AA068" fill-rule="nonzero"></path>
                        <path d="M64.8857371,106.360106 C64.8857371,106.360106 41.99544,113.877936 26.5302857,100.378468 L15.6737257,101.758511 C15.6737257,101.758511 29.6755429,120.172745 60.6617486,118.17683 L64.8857371,106.360106 Z" id="Shape" fill="#3EC688" fill-rule="nonzero"></path>
                        <path d="M76.97704,110.284766 L71.8862286,107.10683" id="Shape" fill="#ED8470" fill-rule="nonzero"></path>
                        <path d="M52.4031543,122.079681 C51.9835086,126.817362 54.3904229,130.923468 57.7792914,131.25234 C61.16816,131.58034 64.2550171,128.006362 64.6746629,123.268681 C65.0943086,118.531 65.02256,112.970702 61.6336914,112.64183 C58.2448229,112.31383 52.8228,117.342 52.4031543,122.079681 Z" id="Shape" fill="#FFAB00" fill-rule="nonzero"></path>
                        <g transform="translate(1.668571, 70.659574)" fill-rule="nonzero">
                            <path d="M1.89466286,44.2154468 L26.0247086,46.9249362 C26.0372229,46.9266809 26.0489029,46.9162128 26.0505714,46.9031277 L30.3671657,4.87289362 C30.3671657,4.87114894 29.0590057,3.54693617 28.6243429,3.49721277 C24.7273943,3.05319149 6.41649143,1.66791489 6.41482286,1.68012766 L1.87380571,44.1875319 C1.87297143,44.2014894 1.88214857,44.2137021 1.89466286,44.2154468 Z" id="Shape" fill="#E2D9D9"></path>
                            <path d="M0.0191885714,44.2311489 L24.1750971,46.9432553 C24.1809371,46.9441277 24.1859429,46.939766 24.1867771,46.9336596 L28.6460343,3.51117021 C28.6468686,3.50506383 28.6426971,3.49982979 28.6368571,3.49895745 L4.48094857,0.786851064 C4.47510857,0.785978723 4.47010286,0.790340426 4.46926857,0.796446809 L0.0100114286,44.2189362 C0.00917714286,44.2250426 0.0133485714,44.2302766 0.0191885714,44.2311489 Z" id="Shape" fill="#F7F1F0"></path>
                            <g transform="translate(12.514286, 6.106383)" id="Oval">
                                <ellipse fill="#E2D9D9" transform="translate(3.368244, 3.651797) rotate(-80.840025) translate(-3.368244, -3.651797) " cx="3.36824369" cy="3.6517969" rx="2.96854579" ry="2.68607843"></ellipse>
                                <ellipse fill="#FFFFFF" transform="translate(3.368244, 3.651797) rotate(-80.840025) translate(-3.368244, -3.651797) " cx="3.36824369" cy="3.6517969" rx="2.23183249" ry="2.01870266"></ellipse>
                            </g>
                            <g transform="translate(10.011429, 6.978723)" id="Oval">
                                <ellipse fill="#E2D9D9" transform="translate(1.326207, 1.837143) rotate(-80.840025) translate(-1.326207, -1.837143) " cx="1.32620727" cy="1.83714309" rx="1.15971856" ry="1.04948111"></ellipse>
                                <ellipse fill="#FFFFFF" transform="translate(1.326207, 1.837143) rotate(-80.840025) translate(-1.326207, -1.837143) " cx="1.32620727" cy="1.83714309" rx="1" ry="1"></ellipse>
                            </g>
                        </g>
                        <g transform="translate(0.000000, 86.361702)" fill="#FDC58A" fill-rule="nonzero" id="Shape">
                            <path d="M11.7133714,26.1004255 C9.46580571,27.2824468 6.58168,26.0271489 5.26934857,23.2941064 L0.672434286,13.7411064 C-0.640731429,11.0080638 0.113462857,7.83623404 2.36269714,6.65770213 L7.92237714,3.73448936 C10.16744,2.55159574 13.0524,3.8086383 14.3680686,6.53993617 L18.9633143,16.0981702 C20.2731429,18.8268511 19.5156114,21.9978085 17.2705486,23.1807021 L11.7133714,26.1004255 Z"></path>
                            <path d="M12.1146629,7.82489362 C10.52368,8.36923404 8.85010286,7.5806383 8.37706286,6.06538298 C7.90152,4.55274468 8.80922286,2.88221277 10.4043771,2.33874468 L16.0266286,0.416978723 C17.6234514,-0.128234043 19.2978629,0.65687234 19.77424,2.17125532 C20.2447771,3.68651064 19.3379086,5.35442553 17.7435886,5.90051064 L12.1146629,7.82489362 Z"></path>
                            <path d="M17.0794971,17.9754468 C15.48768,18.5180426 13.8116,17.7338085 13.3377257,16.2159362 C12.8638514,14.7024255 13.7723886,13.0336383 15.36504,12.4892979 L20.9914629,10.5649149 C22.5807771,10.0214468 24.2601943,10.8091702 24.7324,12.3226809 C25.20544,13.8388085 24.30024,15.5058511 22.70592,16.0510638 L17.0794971,17.9754468 Z"></path>
                            <path d="M15.9123314,12.5564681 C14.3180114,13.1016809 12.6410971,12.3157021 12.1688914,10.8021915 C11.6933486,9.28519149 12.6010514,7.61465957 14.1928686,7.07293617 L19.82096,5.14768085 C21.4136114,4.60334043 23.0905257,5.38931915 23.5627314,6.90719149 C24.0366057,8.41982979 23.1280686,10.0894894 21.5337486,10.6347021 L15.9123314,12.5564681 Z"></path>
                            <path d="M15.4493029,23.0236809 C13.7723886,23.0114681 12.4225143,21.7090638 12.4375314,20.1144255 C12.4483771,18.5197872 13.8149371,17.2409362 15.49352,17.2514043 L21.4127771,17.3037447 C23.0871886,17.3150851 24.4362286,18.6174894 24.4245486,20.213 C24.4120343,21.8085106 23.04464,23.085617 21.3677257,23.0742766 L15.4493029,23.0236809 Z"></path>
                        </g>
                        <path d="M82.9705486,112.575532 C82.9705486,112.575532 88.9732343,124.844128 85.3432571,139.417447 C85.3432571,139.417447 82.5792686,148.027447 90.6117714,156.112298 L59.0932914,160.208809 C61.8831429,153.69766 57.3129257,141.119383 57.1393943,126.10466 C57.0651429,119.685979 64.8857371,103.150766 64.8857371,103.150766 L82.7185943,110.46534" id="Shape" fill="#2AA068" fill-rule="nonzero"></path>
                        <path d="M76.2804114,112.575532 C76.2804114,112.575532 84.7517486,125.099723 81.1217714,139.673043 C81.1217714,139.673043 75.32432,153.500511 85.2932,156.803191 L59.0932914,160.208809 C61.8831429,153.69766 57.3129257,141.119383 57.1393943,126.10466 C57.0651429,119.685979 64.8857371,103.150766 64.8857371,103.150766 L76.0292914,110.46534" id="Shape" fill="#3EC688" fill-rule="nonzero"></path>
                        <path d="M79.2120914,94.7937447 C79.2120914,94.7937447 65.2177829,91.8365106 66.1505143,78.7505319 C66.1505143,78.7505319 62.7499657,81.7583617 48.3485257,83.2474468 C42.6904,83.8319149 31.61776,77.695 30.6333029,69.3999149 C30.1452457,65.2885745 32.1358514,60.6477234 38.4906057,56.0330426 C41.2646057,54.0170638 44.1570743,49.5053191 41.6325257,44.1997447 C35.3703771,31.0413617 58.2673486,8.92404255 73.5848343,28.7811277 C73.5848343,28.7802553 90.4298971,94.3322766 79.2120914,94.7937447 Z" id="Shape" fill="#F05937" fill-rule="nonzero"></path>
                        <path d="M70.2985829,90.9493404 C70.2985829,90.9493404 77.1864457,104.024851 88.8489257,99.1772553 C88.8489257,99.1772553 85.54432,99.4441915 84.6307771,114.546149 C84.00256,124.922638 110.890754,143.272319 117.860377,119.969489 C118.868194,116.597894 122.12024,112.361809 127.716629,113.291723 C141.599143,115.599064 158.219783,86.6853404 129.835714,75.3719574 C129.836549,75.3737021 67.3618971,79.619383 70.2985829,90.9493404 Z" id="Shape" fill="#ED3024" fill-rule="nonzero"></path>
                        <path d="M67.2217371,88.0147872 C67.2217371,88.0147872 74.1096,101.090298 85.77208,96.2427021 C85.77208,96.2427021 80.9682629,97.6000638 83.9216343,112.414149 C85.6569486,121.118362 104.737063,137.403213 111.706686,114.100383 C112.714503,110.728787 115.966549,106.492702 121.562937,107.422617 C135.445451,109.729957 151.709851,83.3591064 123.325783,72.0457234 C123.326617,72.0457234 64.2842171,76.6839574 67.2217371,88.0147872 Z" id="Shape" fill="#F05937" fill-rule="nonzero"></path>
                        <path d="M46.5831771,54.6154894 C38.8994057,74.0555957 39.9380914,95.286617 56.7614629,102.55234 L75.7181029,110.746234 C92.5456457,118.00934 106.546629,103.39066 114.22456,83.9522979 L116.990217,76.951766 C124.674823,57.5142766 123.87808,38.663 107.055543,31.3929149 L88.0972343,23.2025106 C71.2755314,15.9359149 57.0267657,28.1765957 49.348,47.6167021 L46.5831771,54.6154894 Z" id="Shape" fill="#F9AA69" fill-rule="nonzero"></path>
                        <path d="M67.8382743,107.340617 L56.7614629,102.55234 C39.9372571,95.286617 38.8985714,74.0547234 46.5831771,54.6154894 L49.3488343,47.6175745 C57.0276,28.1774681 71.2763657,15.9359149 88.0980686,23.203383 L95.3738743,25.3397447 C112.196411,32.6089574 113.406126,53.3575745 105.72152,72.7941915 C105.72152,72.7941915 90.6952,114.056766 67.8382743,107.340617 Z" id="Shape" fill="#FDC58A" fill-rule="nonzero"></path>
                        <path d="M73.8301143,85.2259149 C70.7115543,90.5864468 64.0280914,92.2892553 58.9030743,89.0301915 C53.7780571,85.7702553 52.1503657,78.7836809 55.2689257,73.4222766 C55.2689257,73.4222766 59.8791886,83.0755957 74.0428571,84.7775319 L73.8301143,85.2259149 Z" id="Shape" fill="#FFFFFF" fill-rule="nonzero"></path>
                        <path d="M116.302766,6.06451064 C116.302766,6.06451064 122.13776,8.55417021 128.156297,14.0996383 C128.24056,14.1493617 128.320651,14.1868723 128.404914,14.2374681 C128.404914,14.2374681 159.308526,37.7601277 126.390114,87.7007447 C126.390114,87.7007447 109.093703,82.1936596 117.621771,69.7785106 C117.621771,69.7785106 125.907063,66.7314255 118.749726,59.701234 C118.749726,59.701234 102.730606,65.0984043 93.2130743,57.3223617 C93.2130743,57.3223617 102.064846,55.4686383 97.1300457,49.9275319 C97.1300457,49.9275319 84.5974057,56.3680213 75.7197714,50.2188936 C75.7197714,50.2188936 80.6554057,48.5509787 80.2666286,42.2631489 C80.2666286,42.2631489 61.8247429,48.1531915 57.8502057,45.9644894 C57.8502057,45.9644894 57.8844114,41.1264894 59.5079314,38.1369787 C59.8725143,37.4670213 60.6225371,35.7895106 61.7897029,33.5397447 C59.1058057,35.5958511 53.3375543,40.3474894 50.27072,45.3660638 C50.27072,45.3651915 59.28184,-19.5369362 116.302766,6.06451064 Z" id="Shape" fill="#ED3024" fill-rule="nonzero"></path>
                        <path d="M93.3248686,0.275659574 C93.3248686,0.275659574 149.846891,8.35004255 126.390949,87.7007447 C122.242046,86.4724894 109.775314,82.7824894 117.622606,69.7785106 C117.622606,69.7785106 123.684526,62.7526809 116.527189,55.721617 C116.527189,55.721617 102.73144,65.0975319 93.2130743,57.3214894 C93.2130743,57.3214894 100.31368,53.0461489 95.3780457,47.5050426 C95.3780457,47.5050426 84.5974057,56.3662766 75.7197714,50.2171489 C75.7197714,50.2171489 80.6554057,48.549234 80.2666286,42.2614043 C80.2666286,42.2614043 61.8247429,48.1514468 57.8502057,45.9627447 C57.8502057,45.9627447 57.8844114,41.1247447 59.5079314,38.135234 C59.8725143,37.4652766 60.6225371,35.787766 61.7897029,33.538 C59.1058057,35.5941064 53.3375543,40.3457447 50.27072,45.3643191 C50.27072,45.3651915 54.9994514,-3.00870213 93.3248686,0.275659574 Z" id="Shape" fill="#F05937" fill-rule="nonzero"></path>
                        <g transform="translate(57.565714, 50.595745)" fill="#0C1E2B" fill-rule="nonzero" id="Shape">
                            <path d="M8.90683429,11.605617 C8.90683429,11.605617 11.14856,2.19480851 0.212742857,3.50244681 C0.212742857,3.50244681 7.13230857,4.9653617 8.90683429,11.605617 Z"></path>
                            <path d="M3.20282286,3.41957447 C3.20282286,3.41957447 0.102617143,2.93804255 0.984457143,0.650765957 C0.984457143,0.650765957 -0.306182857,2.85342553 0.212742857,3.50244681 L3.20282286,3.41957447 Z"></path>
                        </g>
                        <g transform="translate(78.422857, 64.553191)" fill="#0C1E2B" fill-rule="nonzero" id="Shape">
                            <path d="M0.0208571429,3.22504255 C0.0208571429,3.22504255 5.26934857,-4.77082979 11.5873943,4.65306383 C11.58656,4.65306383 5.95012571,0.209361702 0.0208571429,3.22504255 Z"></path>
                            <path d="M9.66269714,2.25848936 C9.66269714,2.25848936 12.0637714,4.36519149 13.1158057,2.15817021 C13.1158057,2.15817021 12.3958171,4.62951064 11.58656,4.65393617 L9.66269714,2.25848936 Z"></path>
                        </g>
                        <path d="M91.6496229,109.776191 C91.6496229,109.776191 99.9682857,129.05666 91.9825029,136.83183 C88.3525257,140.365681 79.70432,138.475319 70.5730629,138.112426 C70.5730629,138.112426 71.8970743,132.162191 75.9758971,127.989787 C77.4634286,126.468426 85.3699543,129.963021 85.2923657,126.984851 C85.1755657,122.507128 83.2642171,119.166064 80.20072,111.684872 C80.2015543,111.684872 86.6147086,110.525532 91.6496229,109.776191 Z" id="Shape" fill="#2AA068" fill-rule="nonzero"></path>
                        <path d="M91.6496229,109.776191 C91.6496229,109.776191 100.590663,130.065085 92.6057143,137.840255 C88.9757371,141.374106 81.0091429,136.806532 71.87872,136.442766 C71.87872,136.442766 74.12712,132.161319 78.2067771,127.988915 C79.6943086,126.467553 87.6008343,129.962149 87.5232457,126.983979 C87.4064457,122.506255 85.4950971,119.165191 82.4316,111.684 C82.4316,111.684872 86.6147086,110.525532 91.6496229,109.776191 Z" id="Shape" fill="#3EC688" fill-rule="nonzero"></path>
                        <path d="M49.6433371,132.572191 L74.1070971,141.735255 C75.3176457,141.939383 76.4681257,141.070532 76.6633486,139.803894 L83.0364571,98.4715319 C83.23168,97.205766 82.4007314,96.0028085 81.1901829,95.7986809 L56.7264229,86.635617 C55.5158743,86.4314894 54.3653943,87.3003404 54.1701714,88.5669787 L47.7970629,129.89934 C47.60184,131.165106 48.4327886,132.368064 49.6433371,132.572191 Z" id="Shape" fill="#4C9AFF" fill-rule="nonzero"></path>
                        <g transform="translate(59.234286, 121.255319)" fill="#FDC58A" fill-rule="nonzero" id="Shape">
                            <path d="M16.1776343,24.5110213 C18.6095771,25.1835957 21.1850171,23.3359787 21.9317029,20.3787447 L24.5505257,10.0415106 C25.2972114,7.0842766 25.2780229,4.11657447 22.8444114,3.44661702 L15.4868457,1.80748936 C13.0565714,1.13317021 10.4811314,2.98340426 9.73027429,5.93976596 L7.11395429,16.282234 C6.36893714,19.234234 7.73382857,22.1748936 10.1632686,22.8492128 L16.1776343,24.5110213 Z"></path>
                            <path d="M12.1897486,6.71353191 C13.8541486,6.90370213 15.3366743,5.77314894 15.5010286,4.18810638 C15.66872,2.60568085 14.4523314,1.16631915 12.78376,0.977021277 L6.90454857,0.306191489 C5.23514286,0.116021277 3.75094857,1.24482979 3.58242286,2.829 C3.41973714,4.41317021 4.63529143,5.84991489 6.30302857,6.04095745 L12.1897486,6.71353191 Z"></path>
                            <path d="M9.32814857,17.714617 C10.9925486,17.9030426 12.4784114,16.7751064 12.6436,15.1883191 C12.8096229,13.6058936 11.5924,12.1674043 9.92633143,11.977234 L4.04128,11.3046596 C2.37938286,11.1153617 0.890182857,12.2459149 0.725828571,13.8292128 C0.56064,15.4142553 1.77452571,16.851 3.44226286,17.0420426 L9.32814857,17.714617 Z"></path>
                            <path d="M9.40406857,12.1595532 C11.0718057,12.3505957 12.5576686,11.2209149 12.7220229,9.63761702 C12.88888,8.05082979 11.6724914,6.61146809 10.0072571,6.42304255 L4.12053714,5.74959574 C2.45446857,5.55942553 0.968605714,6.68910638 0.805085714,8.27676596 C0.639062857,9.85919149 1.85628571,11.2976809 3.52402286,11.4887234 L9.40406857,12.1595532 Z"></path>
                            <path d="M11.9169371,22.304 C13.5554743,21.9315106 14.6200229,20.3665319 14.2921486,18.8094043 C13.9684457,17.2514043 12.3791314,16.2935745 10.7380914,16.6651915 L4.95565714,17.9894043 C3.31878857,18.3601489 2.25507429,19.9251277 2.58044571,21.484 C2.90581714,23.042 4.49596571,23.9989574 6.13450286,23.6264681 L11.9169371,22.304 Z"></path>
                        </g>
                        <path d="M74.7511657,114.185 L55.2997943,108.079489" id="Shape" stroke="#E2D9D9" stroke-width="0.5"></path>
                        <path d="M73.5890057,119.827298 L54.1376343,113.721787" id="Shape" stroke="#E2D9D9" stroke-width="0.5"></path>
                        <polygon id="Shape" fill="#FFFFFF" fill-rule="nonzero" points="60.4723657 105.710213 64.7489143 104.713128 67.9592457 107.831745 68.3738857 103.271149 72.2015886 101.042319 68.182 99.2208723 67.3377029 94.7248298 64.43856 98.1601064 60.0885943 97.6096596 62.3169714 101.554383"></polygon>
                        <polygon id="Shape" fill="#FF8F73" fill-rule="nonzero" points="62.9919086 103.353149 65.2369714 102.829745 66.9222286 104.467128 67.1399771 102.072553 69.1497714 100.902745 67.0390286 99.9466596 66.5960229 97.5861064 65.0742857 99.389234 62.7908457 99.1004894 63.9605143 101.171426"></polygon>
                        <g transform="translate(110.125714, 34.893617)" fill="#FFC600" fill-rule="nonzero" id="Shape">
                            <path d="M9.51586286,10.1767234 C8.53224,11.3901489 8.87513143,13.3782128 10.2717257,14.6195532 L12.2856914,16.405234 C13.6847886,17.6483191 15.61616,17.6744894 16.6047886,16.4540851 C17.5850743,15.2450213 17.24552,13.2587021 15.8422514,12.0173617 L13.8316229,10.2334255 C12.4325257,8.99034043 10.4994857,8.96678723 9.51586286,10.1767234 Z"></path>
                            <path d="M4.66782857,5.20089362 C2.73228571,8.10840426 -3.06433143,8.22704255 2.44362286,11.895234 L4.15808,13.1383191 C6.94376,15.1595319 10.7639543,14.4381064 12.6978286,11.5340851 C14.6308686,8.61959574 13.9450857,4.6242766 11.1610743,2.60568085 L9.44411429,1.35910638 C4.51348571,-2.22010638 4.66782857,5.20089362 4.66782857,5.20089362 Z"></path>
                            <path d="M20.9580914,20.7416383 C23.1973143,18.0871064 28.9705714,18.6645957 23.8981143,14.3604681 L22.3329943,12.9184894 C19.7875886,10.5771277 15.9106629,10.8379574 13.6739429,13.491617 C11.4363886,16.1548723 11.68,20.2068936 14.2270743,22.544766 L15.7921943,23.9884894 C20.3006743,28.1321064 20.9580914,20.7416383 20.9580914,20.7416383 Z"></path>
                        </g>
                    </g>
                </g>
                <g id="Group" transform="translate(249.000000, 0.000000)">
                    <path d="M280.773566,207.515533 L2.41676991,207.515533 C1.49848083,207.515533 0.747153392,206.735533 0.747153392,205.7822 L0.747153392,1.88586667 C0.747153392,0.932533333 1.49848083,0.152533333 2.41676991,0.152533333 L280.773566,0.152533333 C281.691855,0.152533333 282.443183,0.932533333 282.443183,1.88586667 L282.443183,205.7822 C282.443183,206.735533 281.691855,207.515533 280.773566,207.515533 Z" id="Shape" stroke="#416FF9" stroke-width="5" fill="#00D8FF" fill-rule="nonzero"></path>
                    <ellipse id="Oval" fill="#FFFFFF" fill-rule="nonzero" cx="49.1585192" cy="124.917" rx="6.19928614" ry="6.43586667"></ellipse>
                    <polygon id="Shape" fill="#416FF9" fill-rule="nonzero" points="106.709366 188.6378 34.4191445 188.6378 32.7912684 90.337 104.771776 87.2750667"></polygon>
                    <g transform="translate(30.887906, 85.800000)">
                        <rect id="Rectangle-path" fill="#EFF2F4" fill-rule="nonzero" x="0.79640708" y="0.2288" width="73.0874631" height="99.8599333"></rect>
                        <polygon id="Shape" fill="#F7D647" fill-rule="nonzero" points="36.1522065 40.5288 70.7307994 4.537 70.7307994 82.0499333"></polygon>
                        <path d="M56.6701239,27.8841333 L36.1522065,27.8841333" id="Shape" stroke="#F7D647"></path>
                        <path d="M41.9674808,39.8640667 L21.4495634,39.8640667" id="Shape" stroke="#F7D647"></path>
                        <path d="M47.5990973,47.3234667 L27.0811799,47.3234667" id="Shape" stroke="#F7D647"></path>
                        <path d="M52.2264395,54.7828667 L31.7085221,54.7828667" id="Shape" stroke="#F7D647"></path>
                        <path d="M60.3491239,62.6106 L39.8320413,62.6106" id="Shape" stroke="#F7D647"></path>
                        <path d="M66.9282478,69.4052667 L46.4111652,69.4052667" id="Shape" stroke="#F7D647"></path>
                        <text id="MISSION" fill="#282467" font-family="Helvetica" font-size="9.7" font-weight="normal">
                            <tspan x="16.8563805" y="91.5339333">MISSION</tspan>
                        </text>
                        <polygon id="Shape" fill="#0065FF" fill-rule="nonzero" points="19.6221681 4.537 70.7307994 4.537 53.4410855 22.5333333"></polygon>
                        <rect id="Rectangle-path" stroke="#FC5130" stroke-width="0.5" x="3.94947788" y="4.537" width="66.7813215" height="91.2435333"></rect>
                    </g>
                    <ellipse id="Oval" fill="#282467" fill-rule="nonzero" cx="101.618705" cy="90.337" rx="2.09870796" ry="2.1788"></ellipse>
                    <ellipse id="Oval" fill="#282467" fill-rule="nonzero" cx="34.8373835" cy="90.337" rx="2.09870796" ry="2.1788"></ellipse>
                    <ellipse id="Oval" fill="#282467" fill-rule="nonzero" cx="162.084702" cy="96.7841333" rx="2.09870796" ry="2.1788"></ellipse>
                    <polygon id="Shape" fill="#416FF9" fill-rule="nonzero" points="197.468885 188.6378 125.596903 186.211133 123.550788 90.337 195.531295 87.2750667"></polygon>
                    <g transform="translate(121.882006, 85.800000)">
                        <rect id="Rectangle-path" fill="#EFF2F4" fill-rule="nonzero" x="0.561825959" y="0.2288" width="73.0874631" height="99.8599333"></rect>
                        <polygon id="Shape" fill="#F7D647" fill-rule="nonzero" points="35.9176254 40.5288 70.4962183 4.537 70.4962183 82.0499333"></polygon>
                        <path d="M56.434708,27.8841333 L35.9176254,27.8841333" id="Shape" stroke="#F7D647"></path>
                        <path d="M41.7328997,39.8640667 L21.2149823,39.8640667" id="Shape" stroke="#F7D647"></path>
                        <path d="M47.3645162,47.3234667 L26.8465988,47.3234667" id="Shape" stroke="#F7D647"></path>
                        <path d="M51.9918584,54.7828667 L31.473941,54.7828667" id="Shape" stroke="#F7D647"></path>
                        <path d="M60.1145428,62.6106 L39.5966254,62.6106" id="Shape" stroke="#F7D647"></path>
                        <path d="M66.6936667,69.4052667 L46.1757493,69.4052667" id="Shape" stroke="#F7D647"></path>
                        <text id="MISSION" fill="#282467" font-family="Helvetica" font-size="9.7" font-weight="normal">
                            <tspan x="16.6216324" y="91.5339333">MISSION</tspan>
                        </text>
                        <polygon id="Shape" fill="#0065FF" fill-rule="nonzero" points="19.387587 4.537 70.4962183 4.537 53.2065044 22.5333333"></polygon>
                        <rect id="Rectangle-path" stroke="#FC5130" stroke-width="0.5" x="3.71489676" y="4.537" width="66.7813215" height="91.2435333"></rect>
                    </g>
                    <ellipse id="Oval" fill="#282467" fill-rule="nonzero" cx="193.102838" cy="89.4538667" rx="2.09870796" ry="2.1788"></ellipse>
                    <ellipse id="Oval" fill="#282467" fill-rule="nonzero" cx="125.596903" cy="89.4538667" rx="2.09870796" ry="2.1788"></ellipse>
                    <rect id="Rectangle-path" fill="#416FF9" fill-rule="nonzero" x="102.166339" y="12.2382" width="51.1528761" height="63.7"></rect>
                    <polygon id="Shape" fill="#FFFFFF" fill-rule="nonzero" points="151.657112 77.961 102.166339 75.9382 102.166339 12.2382 153.319215 12.2382"></polygon>
                    <rect id="Rectangle-path" fill="#416FF9" fill-rule="nonzero" x="208.445779" y="131.353733" width="51.1528761" height="63.7"></rect>
                    <polygon id="Shape" fill="#FFFFFF" fill-rule="nonzero" points="257.398935 192.9382 208.445779 195.053733 208.445779 131.353733 259.598655 131.353733"></polygon>
                    <polygon id="Shape" fill="#416FF9" fill-rule="nonzero" points="87.734174 66.4048667 17.3222714 66.4048667 15.3554631 26.9715333 87.734174 26.9715333"></polygon>
                    <polygon id="Shape" fill="#FFFFFF" fill-rule="nonzero" points="87.734174 66.4048667 15.3554631 64.2382 15.3554631 26.9715333 87.734174 26.9715333"></polygon>
                    <ellipse id="Oval" fill="#282467" fill-rule="nonzero" cx="18.4025133" cy="30.8715333" rx="2.09870796" ry="2.1788"></ellipse>
                    <ellipse id="Oval" fill="#282467" fill-rule="nonzero" cx="84.3289912" cy="30.8715333" rx="2.09870796" ry="2.1788"></ellipse>
                    <ellipse id="Oval" fill="#282467" fill-rule="nonzero" cx="125.596903" cy="16.5594" rx="2.09870796" ry="2.1788"></ellipse>
                    <ellipse id="Oval" fill="#282467" fill-rule="nonzero" cx="234.021799" cy="135.302267" rx="2.09870796" ry="2.1788"></ellipse>
                </g>
                <g id="Group" transform="translate(409.000000, 260.000000)">
                    <g id="Shape">
                        <path d="M12.305618,70.0704405 L69.2739775,70.0704405 C69.7312809,70.0704405 70.1054382,69.679369 70.1054382,69.2013929 L70.1054382,55.588631 C70.1054382,55.1106548 69.7312809,54.7195833 69.2739775,54.7195833 L12.305618,54.7195833 C11.8483146,54.7195833 11.4741573,55.1106548 11.4741573,55.588631 L11.4741573,69.2013929 C11.4741573,69.6785 11.8483146,70.0704405 12.305618,70.0704405 Z" fill="#F9F0EF" fill-rule="nonzero"></path>
                        <path d="M12.6706292,72.2491429 L71.8248989,72.2491429 C72.1300449,72.2491429 72.3794831,71.9884286 72.3794831,71.6694881 L72.3794831,69.659381 C72.3794831,69.3404405 72.1300449,69.0797262 71.8248989,69.0797262 L12.6706292,69.0797262 C12.3654831,69.0797262 12.1160449,69.3404405 12.1160449,69.659381 L12.1160449,71.6694881 C12.1168764,71.9884286 12.3663146,72.2491429 12.6706292,72.2491429 Z" fill="#1E106B" fill-rule="nonzero"></path>
                        <polygon fill="#F9F0EF" fill-rule="nonzero" points="70.0871461 56.8782976 46.2092584 41.1667857 5.29474157 45.954369 13.2775955 56.8782976"></polygon>
                        <path d="M73.2799551,51.2008095 L15.4061348,51.2008095" stroke="#FFFFFF" stroke-width="0.5"></path>
                        <path d="M72.7794157,55.3287857 C75.1066742,59.1699762 13.267618,55.7502738 13.267618,55.7502738 L4.03591011,45.954369 L63.4936629,48.1148214 C63.4936629,48.1148214 70.9793034,52.3575119 72.7794157,55.3287857 Z" fill="#1E106B" fill-rule="nonzero"></path>
                        <path d="M14.821618,54.7195833 L72.3271011,54.7195833 C73.2417079,54.7195833 73.9900225,53.9374405 73.9900225,52.9814881 L73.9900225,38.928119 C73.9900225,37.9721667 73.2417079,37.1900238 72.3271011,37.1900238 L14.821618,37.1900238 C13.9070112,37.1900238 13.1586966,37.9721667 13.1586966,38.928119 L13.1586966,52.9814881 C13.1586966,53.9374405 13.9070112,54.7195833 14.821618,54.7195833 Z" fill="#EAE8E8" fill-rule="nonzero"></path>
                        <polygon fill="#F9F0EF" fill-rule="nonzero" points="71.453236 38.2598214 47.5753483 22.5483095 10.0523596 25.1224286 14.6436854 38.2598214"></polygon>
                        <polygon fill="#E8E6E6" fill-rule="nonzero" points="68.7210562 25.2918929 46.1909663 18.8835357 10.0523596 25.1224286 14.6436854 38.2598214"></polygon>
                        <polygon fill="#FC5130" fill-rule="nonzero" points="0.0831460674 27.6826429 0.0831460674 40.4576429 14.2479101 53.0101667 14.6436854 38.2598214"></polygon>
                        <polygon fill="#FC5130" fill-rule="nonzero" points="37.0365843 0.348488095 0.0831460674 27.6826429 14.6436854 38.2598214 54.0923371 7.18180952"></polygon>
                        <path d="M73.2799551,41.9437143 L15.4061348,41.9437143" stroke="#FFFFFF" stroke-width="0.5"></path>
                        <path d="M73.2799551,45.0288333 L15.4061348,45.0288333" stroke="#FFFFFF" stroke-width="0.5"></path>
                        <path d="M73.2799551,48.1148214 L15.4061348,48.1148214" stroke="#FFFFFF" stroke-width="0.5"></path>
                    </g>
                    <polyline id="Shape" fill="#1E106B" fill-rule="nonzero" points="4.03591011 45.954369 4.03591011 46.5870357 4.03591011 60.0572738 12.6706292 72.2491429 12.6706292 69.0797262 13.267618 55.7502738"></polyline>
                </g>
                <ellipse id="Oval" fill="#C1A4F7" fill-rule="nonzero" cx="228.5" cy="332" rx="21.5" ry="5"></ellipse>
                <g id="Group" transform="translate(129.000000, 53.000000)">
                    <ellipse id="Oval" stroke="#231F20" cx="25.3375" cy="21.9455818" rx="1.44666667" ry="1.48349091"></ellipse>
                    <polygon id="Shape" fill="#416FF9" fill-rule="nonzero" points="6.745 13.5163455 0.738333333 46.4086545 49.6466667 46.4086545 43.3908333 14.0615455"></polygon>
                    <ellipse id="Oval" stroke="#416FF9" stroke-width="5" fill="#FFFFFF" fill-rule="nonzero" cx="24.9758333" cy="20.5167818" rx="19.4616667" ry="19.9570545"></ellipse>
                </g>
                <polyline id="Shape" stroke="#231F20" points="155 62 155 75.3048038 161 81"></polyline>
                <rect id="Rectangle-path" fill="#FFFFFF" fill-rule="nonzero" x="76" y="93" width="16" height="5"></rect>
                <path d="M56.3173315,121 L42.6826685,121 C41.7572008,121 41,120.203811 41,119.230691 L41,109.769309 C41,108.796189 41.7572008,108 42.6826685,108 L56.3173315,108 C57.2427992,108 58,108.796189 58,109.769309 L58,119.230691 C58,120.203811 57.2427992,121 56.3173315,121 Z" id="Shape" fill="#00D8FF" fill-rule="nonzero"></path>
                <path d="M185.317331,121 L171.682669,121 C170.757201,121 170,120.203811 170,119.230691 L170,109.769309 C170,108.796189 170.757201,108 171.682669,108 L185.317331,108 C186.242799,108 187,108.796189 187,109.769309 L187,119.230691 C187,120.203811 186.242799,121 185.317331,121 Z" id="Shape" fill="#00D8FF" fill-rule="nonzero"></path>
                <path d="M196.337162,110 L30.6628375,110 C29.7482769,110 29,109.230051 29,108.289003 L29,100.710997 C29,99.7699487 29.7482769,99 30.6628375,99 L196.337162,99 C197.251723,99 198,99.7699487 198,100.710997 L198,108.289003 C198,109.230051 197.251723,110 196.337162,110 Z" id="Shape" fill="#3A3AA4" fill-rule="nonzero"></path>
                <g id="Group" transform="translate(163.000000, 105.000000)" fill-rule="nonzero">
                    <g transform="translate(47.197452, 216.060606)" id="Shape">
                        <path d="M1.78936306,10.4327652 C0.632611465,10.1356818 0.726178344,5.54875 0.726178344,5.54875 L7.60292994,3.68435606 C8.30592357,4.61568182 18.2786624,0.992310606 18.7945223,0.89125 C22.6671975,0.132424242 20.7403822,4.54598485 20.7403822,4.54598485 C20.7403822,4.54598485 17.4315924,8.14496212 9.46433121,9.52757576 C9.46433121,9.52844697 4.64273885,11.167197 1.78936306,10.4327652 Z" fill="#FFFFFF"></path>
                        <path d="M3.62343949,5.63848485 L5.5966242,8.74522727 C5.5966242,8.74522727 13.9157962,9.88825758 20.1682166,3.64602273 C20.1682166,3.64602273 23.1830573,0.73530303 19.3757962,0.507916667 C15.926242,0.302310606 9.44031847,3.10412879 5.83012739,3.39859848 L3.62343949,5.63848485 Z" fill="#FAA919"></path>
                        <path d="M0.281528662,4.66272727 L1.00687898,9.06670455 C1.00687898,9.06670455 2.18681529,10.81 9.15796178,8.72431818 L6.43541401,2.82969697 L0.281528662,4.66272727 Z" fill="#FAA919"></path>
                        <path d="M10.3900637,2.18064394 L11.3795541,3.66344697 C11.3795541,3.66344697 11.9492357,4.66011364 10.4563057,5.32484848 C10.4563057,5.32484848 12.0088535,5.37015152 12.4129299,3.53189394 C12.4129299,3.53276515 12.1835669,1.75549242 10.3900637,2.18064394 Z" fill="#FFFFFF"></path>
                    </g>
                    <g transform="translate(63.757962, 218.674242)" id="Shape">
                        <path d="M1.10707006,7.11954545 C-0.0869426752,6.22132576 2.01789809,1.01844697 2.01789809,1.01844697 L10.6997452,2.20155303 C11.0988535,3.60594697 24.0880892,4.26893939 24.7231847,4.40223485 C29.4851592,5.40151515 25.3582803,9.52234848 25.3582803,9.52234848 C25.3582803,9.52234848 20.0042675,12.0453788 10.2849045,9.78458333 C10.2832484,9.78545455 4.05235669,9.33590909 1.10707006,7.11954545 Z" fill="#FFFFFF"></path>
                        <path d="M5.2943949,2.51780303 L6.19859873,7.02458333 C6.19859873,7.02458333 15.2207643,12.3442045 25.0941401,8.21640152 C25.0941401,8.21640152 29.8114013,6.33893939 25.5536943,4.24367424 C21.6959236,2.34443182 13.0529936,2.42284091 8.7944586,1.01844697 L5.2943949,2.51780303 Z" fill="#FAA919"></path>
                        <path d="M1.10707006,0.659507576 L1.48547771,5.68901515 C1.48547771,5.68901515 1.39853503,7.74333333 10.2840764,8.71734848 L9.73592357,0.659507576 L1.10707006,0.659507576 Z" fill="#FAA919"></path>
                        <path d="M14.366242,5.83537879 L15.4509554,3.91522727 C15.4509554,3.91522727 16.0628662,2.63454545 14.1683439,1.96371212 C14.1683439,1.96371212 16.0744586,1.75549242 16.7343949,3.97534091 C16.7335669,3.97534091 16.6093631,6.18212121 14.366242,5.83537879 Z" fill="#FFFFFF"></path>
                    </g>
                    <path d="M43.4315924,163.231174 L74.0420382,170.679167 C74.0420382,170.679167 76.1576433,189.984356 76.1576433,194.379621 C76.1576433,200.877121 72.9407643,221.947386 72.9407643,221.947386 C68.5042038,224.956553 64.4452229,222.078068 64.4452229,222.078068 L64.7673248,196.94447 L62.7436306,188.917992 L59.2402548,188.917992 L56.6286624,222.470985 C52.5249682,226.788712 47.5510191,222.470985 47.5510191,222.470985 L46.3164331,192.588409 C46.3164331,192.588409 46.4116561,190.528864 45.2963057,188.468447 C45.2963057,188.468447 31.687707,178.34322 43.4315924,163.231174 Z" id="Shape" fill="#00004F"></path>
                    <polygon id="Shape" fill="#ED3024" points="44.2173885 118.650379 39.0248408 168.033295 74.0494904 172.247348 79.2428662 122.864432"></polygon>
                    <g transform="translate(80.318471, 41.818182)" id="Shape">
                        <polygon fill="#B7212C" points="39.5183439 18.5629167 9.18942675 66.5945833 4.71477707 51.8014015 32.663121 17.39375"></polygon>
                        <polygon fill="#ED3024" points="35.4436306 17.8676894 5.11471338 65.8993561 0.64089172 51.1070455 28.5884076 16.6985227"></polygon>
                        <g transform="translate(26.496815, 0.000000)" fill="#FDC58A">
                            <path d="M0.392484076,11.8798485 C-0.452929936,13.7729924 0.555605096,16.1444318 2.64802548,17.1776894 L9.96280255,20.7975758 C12.0552229,21.8317045 14.2652229,22.2394318 15.1089809,20.3445455 L17.3728025,14.559697 C18.2190446,12.6682955 17.2096815,10.2968561 15.1180892,9.26011364 L7.79917197,5.6419697 C5.71006369,4.61045455 3.32949045,5.30742424 2.48324841,7.19795455 L0.392484076,11.8798485 Z"></path>
                            <path d="M14.6328662,10.4972348 C13.9456051,11.6864394 14.2238217,13.184053 15.2530573,13.8426894 C16.2806369,14.502197 17.6733758,14.070947 18.361465,12.8782576 L20.7892357,8.6755303 C21.4781529,7.4819697 21.2024204,5.98348485 20.1740127,5.32310606 C19.143949,4.66708333 17.7528662,5.09833333 17.063949,6.29015152 L14.6328662,10.4972348 Z"></path>
                            <path d="M13.5663694,16.5547727 C12.2887261,16.9180682 11.5087261,18.2039773 11.8233758,19.4280303 C12.1355414,20.6512121 13.4272611,21.349053 14.7073885,20.9840152 L19.2201274,19.7007197 C20.5010828,19.3356818 21.2835669,18.0506439 20.9714013,16.8265909 C20.6550955,15.6042803 19.3650318,14.9073106 18.0849045,15.2706061 L13.5663694,16.5547727 Z"></path>
                            <path d="M6.4188535,7.24848485 C6.04292994,8.58318182 6.67057325,9.95969697 7.82649682,10.3221212 C8.97993631,10.6845455 10.2219745,9.89348485 10.6003822,8.55791667 L11.9359873,3.84030303 C12.3127389,2.50734848 11.6834395,1.1282197 10.529172,0.767537879 C9.37407643,0.405984848 8.13286624,1.19356061 7.7544586,2.53087121 L6.4188535,7.24848485 Z"></path>
                            <path d="M11.1766879,7.01412879 C10.6773885,8.30613636 11.1766879,9.74102273 12.2928662,10.2167045 C13.4098726,10.6958712 14.7198089,10.0354924 15.2166242,8.74522727 L16.9794904,4.18356061 C17.4779618,2.89242424 16.9778344,1.45753788 15.859172,0.981856061 C14.7446497,0.504431818 13.4355414,1.16481061 12.936242,2.45768939 L11.1766879,7.01412879 Z"></path>
                            <path d="M2.63808917,8.70950758 C2.68197452,10.103447 3.69464968,11.1976894 4.89942675,11.1515152 C6.10420382,11.1088258 7.04235669,9.94575758 6.99847134,8.55094697 L6.83452229,3.63208333 C6.79146497,2.24075758 5.77878981,1.14651515 4.57318471,1.19007576 C3.36840764,1.23363636 2.4310828,2.39757576 2.47579618,3.79151515 L2.63808917,8.70950758 Z"></path>
                        </g>
                    </g>
                    <g transform="translate(54.649682, 112.386364)" id="Shape">
                        <path d="M7.73375796,11.9992045 C7.73375796,11.9992045 38.3756688,41.8617424 62.8918471,20.1999242 L57.2165605,15.8891667 C57.2165605,15.8891667 28.373121,26.6747727 20.3189172,12.7371212 L7.73375796,11.9992045 Z" fill="#ED3024"></path>
                        <path d="M0.617707006,12.4112879 C0.617707006,12.4112879 28.3871975,54.6938258 62.8959873,19.9063258 L59.8240127,17.3859091 C59.8240127,17.3859091 29.7567516,34.6019318 13.2161146,11.9591288 L0.617707006,12.4112879 Z" fill="#B7212C"></path>
                        <g transform="translate(52.993631, 0.000000)" fill="#FDC58A">
                            <path d="M13.9721019,21.9676136 C12.675414,23.5540909 10.2070701,23.5549621 8.45496815,21.9676136 L2.32426752,16.4240909 C0.572165605,14.8376136 -0.685605096,12.8826136 0.612738854,11.2978788 L4.70484076,6.75886364 C5.99904459,5.17238636 8.46904459,5.17238636 10.2228025,6.75712121 L16.3535032,12.305 C18.102293,13.8888636 18.4715924,16.4598106 17.1773885,18.0454167 L13.9721019,21.9676136 Z"></path>
                            <path d="M9.09171975,8.26954545 C8.36305732,9.43174242 6.95707006,9.80723485 5.95184713,9.10852273 C4.94579618,8.41329545 4.72140127,6.90348485 5.45254777,5.73954545 L8.02687898,1.63352273 C8.75802548,0.467840909 10.1631847,0.0906060606 11.1700637,0.785833333 C12.1736306,1.48541667 12.3980255,2.99261364 11.667707,4.15742424 L9.09171975,8.26954545 Z"></path>
                            <path d="M15.5254777,14.2878788 C14.5210828,15.1948106 13.0712102,15.1547348 12.283758,14.1929167 C11.4979618,13.2337121 11.6759873,11.717803 12.6795541,10.8082576 L16.2251592,7.59609848 C17.2270701,6.68916667 18.6810828,6.73011364 19.4652229,7.69018939 C20.2510191,8.65200758 20.0754777,10.165303 19.0702548,11.0757197 L15.5254777,14.2878788 Z"></path>
                            <path d="M13.2144586,9.91090909 C12.2630573,10.8823106 10.8115287,10.9328409 9.9743949,10.0232955 C9.13394904,9.11287879 9.22420382,7.58825758 10.1747771,6.6194697 L13.5332484,3.18950758 C14.4838217,2.21897727 15.9353503,2.16844697 16.7741401,3.08147727 C17.6129299,3.9892803 17.5210191,5.51390152 16.5696178,6.48530303 L13.2144586,9.91090909 Z"></path>
                            <path d="M15.8028662,18.515 C14.5757325,19.0429545 13.2128025,18.5176136 12.7598726,17.3423485 C12.3044586,16.1679545 12.9296178,14.7923106 14.1575796,14.2634848 L18.491465,12.4086742 C19.7161146,11.8815909 21.0790446,12.4060606 21.5344586,13.5813258 C21.9890446,14.7565909 21.3630573,16.1313636 20.1359236,16.6593182 L15.8028662,18.515 Z"></path>
                        </g>
                    </g>
                    <g id="Shape">
                        <path d="M100.003121,87.9122727 C101.533312,107.48928 89.148535,124.542386 72.345414,126.006023 L53.4101274,127.652614 C36.6036943,129.113636 21.7489172,114.434583 20.2245223,94.858447 L19.6714013,87.8103409 C18.1436943,68.2350758 30.5276433,51.1845833 47.3266242,49.7192045 L66.2635669,48.0726136 C83.0658599,46.6081061 97.923949,61.2915152 99.450828,80.8650379 L100.003121,87.9122727 Z" fill="#F9AA6A"></path>
                        <path d="M100.003121,87.9122727 C101.533312,107.48928 89.148535,124.542386 72.345414,126.006023 L68.2773248,126.482576 C51.4708917,127.943598 36.6161146,113.264545 35.0917197,93.6884091 L34.5385987,86.640303 C33.0108917,67.0650379 30.5276433,51.1845833 47.3257962,49.7192045 L66.2627389,48.0726136 C83.0650318,46.6081061 97.923121,61.2915152 99.45,80.8650379 L100.003121,87.9122727 Z" fill="#FDC58A"></path>
                        <path d="M76.7712102,85.5608712 C76.9359873,87.6648485 75.7163057,89.4900379 74.0494904,89.6381439 C72.3810191,89.78625 70.8980255,88.1962879 70.7373885,86.0949242 C70.5742675,83.9926894 71.7972611,82.1683712 73.4607643,82.0228788 C75.1292357,81.8730303 76.6105732,83.4586364 76.7712102,85.5608712" fill="#221F1F"></path>
                        <path d="M76.5617197,85.6035606 C76.6130573,86.2691667 76.146051,86.8485227 75.5142675,86.9007955 C74.8824841,86.956553 74.328535,86.4651894 74.2771975,85.7995833 C74.2225478,85.1374621 74.6928662,84.5563636 75.3254777,84.4988636 C75.952293,84.4457197 76.5112102,84.9362121 76.5617197,85.6035606" fill="#FFFFFF"></path>
                        <path d="M97.0859873,83.7740152 C97.2441401,85.8797348 95.9954777,87.7031818 94.2880892,87.8547727 C92.5815287,88.0054924 91.0687261,86.4225 90.902293,84.3220076 C90.740828,82.2197727 91.9903185,80.3902273 93.698535,80.2403788 C95.4067516,80.0905303 96.9220382,81.6761364 97.0859873,83.7740152" fill="#221F1F"></path>
                        <path d="M96.5933121,84.024053 C96.6438217,84.6870455 96.1735032,85.2707576 95.5425478,85.3282576 C94.9124204,85.3796591 94.3592994,84.8839394 94.3079618,84.220947 C94.2541401,83.5588258 94.7228025,82.9794697 95.355414,82.9219697 C95.9863694,82.8653409 96.5428025,83.3575758 96.5933121,84.024053" fill="#FFFFFF"></path>
                        <path d="M77.772293,99.5812879 C78.4587261,105.643182 83.0650318,110.041932 88.0555414,109.406818 C93.0501911,108.76822 96.5419745,103.335341 95.8538854,97.2699621" fill="#FFFFFF"></path>
                        <path d="M94.4594904,42.7320833 C94.4594904,42.7320833 104.615223,56.5721591 98.7387261,77.7312879 L99.353949,79.5111742 C99.353949,79.5111742 96.5726115,65.0542803 91.6557962,59.5734848 C91.6557962,59.5734848 67.1942675,79.4536742 38.9105732,68.3866667 C38.9105732,68.3866667 32.8014013,78.5711364 35.7425478,91.6323485 L18.7456688,86.3345076 L17.323949,77.986553 C17.323949,77.986553 -19.3824204,48.5770455 16.6052229,33.7037121 C16.6052229,33.7037121 26.7957325,-5.12708333 61.9909554,19.6745833 C61.9909554,19.6745833 68.2036306,18.6404545 57.1445223,1.5525 C57.1445223,1.5525 75.0307006,-2.71992424 80.8318471,6.86253788 C80.8318471,6.86253788 84.2234395,5.31700758 80.3797452,0.0557575758 C80.3797452,0.0557575758 111.725478,18.9610606 93.0559873,41.54375 L94.4594904,42.7320833 Z" fill="#EB9D21"></path>
                        <path d="M94.4594904,42.7320833 C94.4594904,42.7320833 108.721401,61.1826136 98.7387261,77.7312879 L99.353949,79.5111742 C99.353949,79.5111742 96.1221656,64.9967803 91.2045223,59.5159848 C91.2045223,59.5159848 67.1934395,79.4536742 38.9097452,68.3866667 C38.9097452,68.3866667 32.8005732,78.5711364 35.7417197,91.6323485 L24.9450955,88.2668561 L23.3809554,79.0825379 C23.3809554,79.0825379 -4.25605096,51.2290152 25.4187261,44.5511742 C25.4187261,44.5511742 30.4994904,3.83246212 65.6947134,28.6341288 C65.6947134,28.6341288 76.1071338,8.57534091 57.1428662,1.55337121 C57.1428662,1.55337121 79.8257962,-4.60174242 81.8304459,10.8248106 C81.8304459,10.8248106 90.3764968,6.61337121 80.3780892,0.0566287879 C80.3780892,0.0566287879 113.128153,19.4106061 93.0543312,41.5446212 L94.4594904,42.7320833 Z" fill="#FAA919"></path>
                    </g>
                </g>
                <g id="Group" transform="translate(36.000000, 16.000000)" fill-rule="nonzero">
                    <path d="M18.9083796,84.1710309 L2.0214537,84.1710309 C1.11497222,84.1710309 0.373305556,83.3823711 0.373305556,82.4184536 L0.373305556,2.22226804 C0.373305556,1.25835052 1.11497222,0.469690722 2.0214537,0.469690722 L18.9083796,0.469690722 C19.8148611,0.469690722 20.5565278,1.25835052 20.5565278,2.22226804 L20.5565278,82.4184536 C20.5565278,83.3823711 19.8148611,84.1710309 18.9083796,84.1710309 Z" id="Shape" fill="#C1A4F7"></path>
                    <path d="M36.568287,84.1710309 L22.2046759,84.1710309 C21.2981944,84.1710309 20.5565278,83.3823711 20.5565278,82.4184536 L20.5565278,20.4648454 C20.5565278,19.5009278 21.2981944,18.712268 22.2046759,18.712268 L36.568287,18.712268 C37.4747685,18.712268 38.2164352,19.5009278 38.2164352,20.4648454 L38.2164352,82.4184536 C38.2164352,83.3823711 37.4747685,84.1710309 36.568287,84.1710309 Z" id="Shape" fill="#F7D647"></path>
                    <path d="M52.210037,84.8790722 L39.8645833,84.8790722 C38.9581019,84.8790722 38.2164352,84.0904124 38.2164352,83.1264948 L38.2164352,15.0020619 C38.2164352,14.0381443 38.9581019,13.2494845 39.8645833,13.2494845 L52.210037,13.2494845 C53.1165185,13.2494845 53.8581852,14.0381443 53.8581852,15.0020619 L53.8581852,83.1264948 C53.8581852,84.0904124 53.1165185,84.8790722 52.210037,84.8790722 Z" id="Shape" fill="#C1A4F7"></path>
                    <path d="M33.2258426,69.0804639 L28.1965185,69.0804639 C27.290037,69.0804639 26.5483704,68.2918041 26.5483704,67.3278866 L26.5483704,36.8295361 C26.5483704,35.8656186 27.290037,35.0769588 28.1965185,35.0769588 L33.2258426,35.0769588 C34.1323241,35.0769588 34.8739907,35.8656186 34.8739907,36.8295361 L34.8739907,67.3278866 C34.8739907,68.2918041 34.1323241,69.0804639 33.2258426,69.0804639 Z" id="Shape" fill="#FFFFFF"></path>
                    <rect id="Rectangle-path" fill="#FFFFFF" x="0.373305556" y="74.3119072" width="20.1832222" height="1.81128866"></rect>
                    <rect id="Rectangle-path" fill="#FFFFFF" x="20.6191574" y="76.0408247" width="17.5972778" height="4.22546392"></rect>
                    <rect id="Rectangle-path" fill="#FFFFFF" x="20.6191574" y="23.7553093" width="17.5972778" height="4.22546392"></rect>
                    <rect id="Rectangle-path" fill="#FFFFFF" x="38.2164352" y="69.3196907" width="15.64175" height="4.7985567"></rect>
                    <rect id="Rectangle-path" fill="#FFFFFF" x="38.2164352" y="18.712268" width="15.64175" height="4.7985567"></rect>
                    <rect id="Rectangle-path" fill="#FFFFFF" x="38.2164352" y="26.1379381" width="15.64175" height="4.7985567"></rect>
                    <path d="M87.3955278,79.9008763 L75.749713,84.2577835 C74.8943241,84.5776289 73.9491111,84.0956701 73.6483241,83.1860825 L54.1762778,24.3319072 C53.8754907,23.4223196 54.3287315,22.4172165 55.1841204,22.0973711 L66.8299352,17.7404639 C67.6853241,17.4206186 68.630537,17.9025773 68.9313241,18.8121649 L88.4033704,77.6663402 C88.7041574,78.5750515 88.2509167,79.5810309 87.3955278,79.9008763 Z" id="Shape" fill="#FF8F73"></path>
                    <rect id="Rectangle-path" fill="#ED3024" transform="translate(66.262367, 40.034696) rotate(70.615584) translate(-66.262367, -40.034696) " x="55.022151" y="37.6705015" width="22.4804316" height="4.72838859"></rect>
                    <g transform="translate(0.000000, 27.164948)" fill="#FFFFFF" id="Rectangle-path">
                        <rect x="0.373305556" y="0.475824742" width="20.1832222" height="1.81128866"></rect>
                        <rect x="0.373305556" y="4.70128866" width="20.1832222" height="1.81128866"></rect>
                    </g>
                </g>
                <g id="Group" transform="translate(37.000000, 93.000000)" fill="#C1A4F7" fill-rule="nonzero">
                    <path d="M258,85.4990344 C258,86.8792327 256.881808,88 255.499678,88 C254.11948,88 253,86.8792327 253,85.4990344 C253,84.1188361 254.11948,83 255.499678,83 C256.881808,83 258,84.1188361 258,85.4990344 Z" id="Shape"></path>
                    <path d="M333,154.500359 C333,156.983414 331.210384,159 328.999043,159 C326.789616,159 325,156.983414 325,154.500359 C325,152.01515 326.789616,150 328.999043,150 C331.210384,150 333,152.01515 333,154.500359 Z" id="Shape"></path>
                    <path d="M102,89.4996413 C102,91.9826968 100.210384,94 97.999043,94 C95.7896164,94 94,91.9826968 94,89.4996413 C94,87.0144328 95.7896164,85.0000002 97.999043,85.0000002 C100.210384,84.9992825 102,87.0144328 102,89.4996413 Z" id="Shape"></path>
                    <path d="M365,200.503352 C365,201.88053 363.879452,203 362.499627,203 C361.119803,203 360,201.88053 360,200.503352 C360,199.117235 361.119803,198 362.499627,198 C363.879452,198 365,199.117235 365,200.503352 Z" id="Shape"></path>
                    <path d="M315,2.49839311 C315,3.87903329 313.879964,5 312.499679,5 C311.119393,5 310,3.87903329 310,2.49839311 C310,1.11903844 311.119393,0 312.499679,0 C313.879964,0 315,1.11968119 315,2.49839311 Z" id="Shape"></path>
                    <path d="M3,113.501009 C3,114.32885 2.33094009,115 1.50033655,115 C0.669733004,115 0,114.32885 0,113.501009 C0,112.67115 0.669733004,112 1.50033655,112 C2.33094009,112 3,112.67115 3,113.501009 Z" id="Shape"></path>
                    <path d="M108,191 C108,192.103205 107.107974,193 106.000963,193 C104.89331,193 104,192.103846 104,191 C104,189.894872 104.89331,189 106.000963,189 C107.108615,189 108,189.894872 108,191 Z" id="Shape"></path>
                    <path d="M28,39.5059127 C28,41.435556 26.6565295,43 25.0023852,43 C23.3410853,43 22,41.435556 22,39.5059127 C22,37.5707046 23.3410853,36 25.0023852,36 C26.6565295,36 28,37.5707046 28,39.5059127 Z" id="Shape"></path>
                    <path d="M226,225.997997 C226,227.105843 225.104508,228 224,228 C222.89616,228 222,227.105843 222,225.997997 C222,224.893489 222.89616,224 224,224 C225.10384,224 226,224.893489 226,225.997997 Z" id="Shape"></path>
                    <path d="M193,145.99809 C193,147.106302 192.104107,148 190.998727,148 C189.895256,148 189,147.106302 189,145.99809 C189,144.894971 189.895893,144 190.998727,144 C192.104107,144 193,144.894971 193,145.99809 Z" id="Shape"></path>
                    <path d="M467.699396,4.42121663 C467.045925,5.88119163 465.531034,6.42278423 464.315817,5.64527061 C463.097751,4.8561319 462.645392,3.03441134 463.299433,1.57853932 C463.954044,0.120615811 465.471213,-0.426447419 466.68757,0.358588316 C467.899939,1.14567554 468.356286,2.96466078 467.699396,4.42121663 Z" id="Shape"></path>
                </g>
            </g>
        </g>
    </g>
</svg>