<?xml version="1.0" standalone="no"?><svg xmlns="http://www.w3.org/2000/svg" viewBox="0 0 1440 320"><path fill="#0099ff" fill-opacity="0.1" d="M0,256L40,240C80,224,160,192,240,192C320,192,400,224,480,224C560,224,640,192,720,192C800,192,880,224,960,229.3C1040,235,1120,213,1200,202.7C1280,192,1360,192,1400,192L1440,192L1440,320L1400,320C1360,320,1280,320,1200,320C1120,320,1040,320,960,320C880,320,800,320,720,320C640,320,560,320,480,320C400,320,320,320,240,320C160,320,80,320,40,320L0,320Z"></path></svg>